<svg width="20" height="20" xmlns="http://www.w3.org/2000/svg">

 <g>
  <title>Layer 1</title>
  <g>
   <title>Blog_section</title>
   <g id="svg_9">
    <g id="svg_10">
     <g id="svg_11">
      <path fill="#8d8d8d" d="m20,20l-1.56,0c0,-4.65 -3.79,-8.44 -8.44,-8.44c-4.65,0 -8.44,3.79 -8.44,8.44l-1.56,0c0,-2.67 1.04,-5.18 2.93,-7.07c1.09,-1.09 2.38,-1.9 3.8,-2.39c-1.52,-1.04 -2.51,-2.79 -2.51,-4.76c0,-3.19 2.59,-5.78 5.78,-5.78c3.19,0 5.78,2.59 5.78,5.78c0,1.97 -0.99,3.72 -2.51,4.76c1.42,0.49 2.71,1.3 3.8,2.39c1.89,1.89 2.93,4.4 2.93,7.07zm-14.22,-14.22c0,-2.33 1.89,-4.22 4.22,-4.22c2.33,0 4.22,1.89 4.22,4.22c0,2.33 -1.89,4.22 -4.22,4.22c-2.33,0 -4.22,-1.89 -4.22,-4.22z" class="shp0" id="svg_12"/>
     </g>
    </g>
   </g>
  </g>
  <ellipse stroke="#ffffff" ry="4.13043" rx="4.45652" id="svg_18" cy="5.86957" cx="9.8913" fill="#fff"/>
 </g>
</svg>